<mxfile host="app.diagrams.net" modified="2021-06-06T19:41:18.083Z" agent="5.0 (X11; Linux x86_64) AppleWebKit/537.36 (KHTML, like Gecko) Chrome/90.0.4430.93 Safari/537.36" etag="Ns9-w-85ljiyv0C5YotA" version="14.7.6" type="github">
  <diagram id="C5RBs43oDa-KdzZeNtuy" name="Page-1">
    <mxGraphModel dx="1422" dy="749" grid="1" gridSize="10" guides="1" tooltips="1" connect="1" arrows="1" fold="1" page="1" pageScale="1" pageWidth="827" pageHeight="1169" math="0" shadow="0">
      <root>
        <mxCell id="WIyWlLk6GJQsqaUBKTNV-0" />
        <mxCell id="WIyWlLk6GJQsqaUBKTNV-1" parent="WIyWlLk6GJQsqaUBKTNV-0" />
        <mxCell id="WIyWlLk6GJQsqaUBKTNV-3" value="Client" style="rounded=1;whiteSpace=wrap;html=1;fontSize=12;glass=0;strokeWidth=1;shadow=0;" parent="WIyWlLk6GJQsqaUBKTNV-1" vertex="1">
          <mxGeometry x="20" y="40" width="110" height="40" as="geometry" />
        </mxCell>
        <mxCell id="WIyWlLk6GJQsqaUBKTNV-7" value="UserController" style="rounded=1;whiteSpace=wrap;html=1;fontSize=12;glass=0;strokeWidth=1;shadow=0;" parent="WIyWlLk6GJQsqaUBKTNV-1" vertex="1">
          <mxGeometry x="179" y="40" width="110" height="40" as="geometry" />
        </mxCell>
        <mxCell id="WIyWlLk6GJQsqaUBKTNV-11" value="FileValidator" style="rounded=1;whiteSpace=wrap;html=1;fontSize=12;glass=0;strokeWidth=1;shadow=0;" parent="WIyWlLk6GJQsqaUBKTNV-1" vertex="1">
          <mxGeometry x="521" y="40" width="110" height="40" as="geometry" />
        </mxCell>
        <mxCell id="WIyWlLk6GJQsqaUBKTNV-12" value="UserService" style="rounded=1;whiteSpace=wrap;html=1;fontSize=12;glass=0;strokeWidth=1;shadow=0;" parent="WIyWlLk6GJQsqaUBKTNV-1" vertex="1">
          <mxGeometry x="349" y="40" width="110" height="40" as="geometry" />
        </mxCell>
        <mxCell id="u70KPN-ws7OXE2wOurAZ-0" value="Spring Batch" style="rounded=1;whiteSpace=wrap;html=1;fontSize=12;glass=0;strokeWidth=1;shadow=0;" vertex="1" parent="WIyWlLk6GJQsqaUBKTNV-1">
          <mxGeometry x="689" y="40" width="110" height="40" as="geometry" />
        </mxCell>
        <mxCell id="u70KPN-ws7OXE2wOurAZ-3" value="" style="endArrow=none;html=1;entryX=0.5;entryY=1;entryDx=0;entryDy=0;" edge="1" parent="WIyWlLk6GJQsqaUBKTNV-1" target="WIyWlLk6GJQsqaUBKTNV-3">
          <mxGeometry width="50" height="50" relative="1" as="geometry">
            <mxPoint x="75" y="480" as="sourcePoint" />
            <mxPoint x="440" y="360" as="targetPoint" />
          </mxGeometry>
        </mxCell>
        <mxCell id="u70KPN-ws7OXE2wOurAZ-4" value="" style="endArrow=none;html=1;entryX=0.5;entryY=1;entryDx=0;entryDy=0;" edge="1" parent="WIyWlLk6GJQsqaUBKTNV-1" target="WIyWlLk6GJQsqaUBKTNV-7">
          <mxGeometry width="50" height="50" relative="1" as="geometry">
            <mxPoint x="234" y="480" as="sourcePoint" />
            <mxPoint x="85" y="90" as="targetPoint" />
          </mxGeometry>
        </mxCell>
        <mxCell id="u70KPN-ws7OXE2wOurAZ-5" value="" style="endArrow=none;html=1;entryX=0.5;entryY=1;entryDx=0;entryDy=0;" edge="1" parent="WIyWlLk6GJQsqaUBKTNV-1" target="WIyWlLk6GJQsqaUBKTNV-12">
          <mxGeometry width="50" height="50" relative="1" as="geometry">
            <mxPoint x="404" y="480" as="sourcePoint" />
            <mxPoint x="95" y="100" as="targetPoint" />
          </mxGeometry>
        </mxCell>
        <mxCell id="u70KPN-ws7OXE2wOurAZ-6" value="" style="endArrow=none;html=1;entryX=0.5;entryY=1;entryDx=0;entryDy=0;" edge="1" parent="WIyWlLk6GJQsqaUBKTNV-1">
          <mxGeometry width="50" height="50" relative="1" as="geometry">
            <mxPoint x="575" y="480" as="sourcePoint" />
            <mxPoint x="575" y="80" as="targetPoint" />
          </mxGeometry>
        </mxCell>
        <mxCell id="u70KPN-ws7OXE2wOurAZ-7" value="" style="endArrow=none;html=1;entryX=0.5;entryY=1;entryDx=0;entryDy=0;" edge="1" parent="WIyWlLk6GJQsqaUBKTNV-1" target="u70KPN-ws7OXE2wOurAZ-0">
          <mxGeometry width="50" height="50" relative="1" as="geometry">
            <mxPoint x="744" y="480" as="sourcePoint" />
            <mxPoint x="152" y="120" as="targetPoint" />
          </mxGeometry>
        </mxCell>
        <mxCell id="u70KPN-ws7OXE2wOurAZ-8" value="" style="endArrow=classic;html=1;" edge="1" parent="WIyWlLk6GJQsqaUBKTNV-1">
          <mxGeometry width="50" height="50" relative="1" as="geometry">
            <mxPoint x="75" y="120" as="sourcePoint" />
            <mxPoint x="235" y="120" as="targetPoint" />
          </mxGeometry>
        </mxCell>
        <mxCell id="u70KPN-ws7OXE2wOurAZ-9" value="1.&lt;span style=&quot;white-space: pre&quot;&gt;	&lt;/span&gt;HTTP Upload File" style="text;html=1;strokeColor=none;fillColor=none;align=center;verticalAlign=middle;whiteSpace=wrap;rounded=0;" vertex="1" parent="WIyWlLk6GJQsqaUBKTNV-1">
          <mxGeometry x="77" y="98" width="130" height="20" as="geometry" />
        </mxCell>
        <mxCell id="u70KPN-ws7OXE2wOurAZ-10" value="" style="endArrow=classic;html=1;" edge="1" parent="WIyWlLk6GJQsqaUBKTNV-1">
          <mxGeometry width="50" height="50" relative="1" as="geometry">
            <mxPoint x="234" y="176" as="sourcePoint" />
            <mxPoint x="404" y="176" as="targetPoint" />
          </mxGeometry>
        </mxCell>
        <mxCell id="u70KPN-ws7OXE2wOurAZ-11" value="2.&lt;span style=&quot;white-space: pre&quot;&gt;	&lt;/span&gt;Process CSV File" style="text;html=1;strokeColor=none;fillColor=none;align=center;verticalAlign=middle;whiteSpace=wrap;rounded=0;" vertex="1" parent="WIyWlLk6GJQsqaUBKTNV-1">
          <mxGeometry x="233" y="152" width="140" height="20" as="geometry" />
        </mxCell>
        <mxCell id="u70KPN-ws7OXE2wOurAZ-12" value="" style="endArrow=classic;html=1;" edge="1" parent="WIyWlLk6GJQsqaUBKTNV-1">
          <mxGeometry width="50" height="50" relative="1" as="geometry">
            <mxPoint x="405" y="232" as="sourcePoint" />
            <mxPoint x="575" y="232" as="targetPoint" />
          </mxGeometry>
        </mxCell>
        <mxCell id="u70KPN-ws7OXE2wOurAZ-13" value="3.&lt;span style=&quot;white-space: pre&quot;&gt;	&lt;/span&gt;Validate File" style="text;html=1;strokeColor=none;fillColor=none;align=center;verticalAlign=middle;whiteSpace=wrap;rounded=0;" vertex="1" parent="WIyWlLk6GJQsqaUBKTNV-1">
          <mxGeometry x="394" y="210" width="130" height="20" as="geometry" />
        </mxCell>
        <mxCell id="u70KPN-ws7OXE2wOurAZ-14" value="" style="endArrow=classic;html=1;" edge="1" parent="WIyWlLk6GJQsqaUBKTNV-1">
          <mxGeometry width="50" height="50" relative="1" as="geometry">
            <mxPoint x="404" y="284" as="sourcePoint" />
            <mxPoint x="404" y="334" as="targetPoint" />
            <Array as="points">
              <mxPoint x="454" y="284" />
              <mxPoint x="530" y="284" />
              <mxPoint x="530" y="312" />
              <mxPoint x="530" y="334" />
              <mxPoint x="454" y="334" />
            </Array>
          </mxGeometry>
        </mxCell>
        <mxCell id="u70KPN-ws7OXE2wOurAZ-15" value="4.&lt;span style=&quot;white-space: pre&quot;&gt;	&lt;/span&gt;Create&amp;nbsp;file on &lt;br&gt;&amp;nbsp; &amp;nbsp; &amp;nbsp; &amp;nbsp; &amp;nbsp; &amp;nbsp; &amp;nbsp;predefined path&amp;nbsp;" style="text;html=1;strokeColor=none;fillColor=none;align=center;verticalAlign=middle;whiteSpace=wrap;rounded=0;" vertex="1" parent="WIyWlLk6GJQsqaUBKTNV-1">
          <mxGeometry x="394" y="292" width="140" height="40" as="geometry" />
        </mxCell>
        <mxCell id="u70KPN-ws7OXE2wOurAZ-16" value="" style="endArrow=classic;html=1;" edge="1" parent="WIyWlLk6GJQsqaUBKTNV-1">
          <mxGeometry width="50" height="50" relative="1" as="geometry">
            <mxPoint x="404" y="401" as="sourcePoint" />
            <mxPoint x="744" y="401" as="targetPoint" />
          </mxGeometry>
        </mxCell>
        <mxCell id="u70KPN-ws7OXE2wOurAZ-17" value="5.&lt;span style=&quot;white-space: pre&quot;&gt;	&lt;/span&gt;Launch Spring Batch Job&lt;span&gt;&lt;/span&gt;" style="text;html=1;strokeColor=none;fillColor=none;align=center;verticalAlign=middle;whiteSpace=wrap;rounded=0;" vertex="1" parent="WIyWlLk6GJQsqaUBKTNV-1">
          <mxGeometry x="402" y="376" width="180" height="20" as="geometry" />
        </mxCell>
        <mxCell id="u70KPN-ws7OXE2wOurAZ-18" value="" style="endArrow=classic;html=1;" edge="1" parent="WIyWlLk6GJQsqaUBKTNV-1">
          <mxGeometry width="50" height="50" relative="1" as="geometry">
            <mxPoint x="234" y="440" as="sourcePoint" />
            <mxPoint x="74" y="440" as="targetPoint" />
          </mxGeometry>
        </mxCell>
        <mxCell id="u70KPN-ws7OXE2wOurAZ-19" value="6.&lt;span style=&quot;white-space: pre&quot;&gt;	&lt;/span&gt;Return Response" style="text;html=1;strokeColor=none;fillColor=none;align=center;verticalAlign=middle;whiteSpace=wrap;rounded=0;" vertex="1" parent="WIyWlLk6GJQsqaUBKTNV-1">
          <mxGeometry x="80" y="417" width="123" height="20" as="geometry" />
        </mxCell>
      </root>
    </mxGraphModel>
  </diagram>
</mxfile>
